<svg width="24" height="24" viewBox="0 0 24 24" fill="none" stroke="#3f3f3f" xmlns="http://www.w3.org/2000/svg">
<path d="M17 8.33333V6.66667C17 5.74619 16.1046 5 15 5L9 5C7.89543 5 7 5.74619 7 6.66667V8.33333C7 9.25381 7.89543 10 9 10H15C16.1046 10 17 9.25381 17 8.33333Z"  stroke-width="2" stroke-linecap="round" stroke-linejoin="round"/>
<path d="M17 17.3333V15.6667C17 14.7462 16.1046 14 15 14H9C7.89543 14 7 14.7462 7 15.6667V17.3333C7 18.2538 7.89543 19 9 19H15C16.1046 19 17 18.2538 17 17.3333Z" stroke-width="2" stroke-linecap="round" stroke-linejoin="round"/>
<path d="M3 22V2" stroke-width="2" stroke-linecap="round" stroke-linejoin="round"/>
<path d="M21 22V2" stroke-width="2" stroke-linecap="round" stroke-linejoin="round"/>
</svg>
