<svg width="32" height="33" viewBox="0 0 32 33" fill="none" xmlns="http://www.w3.org/2000/svg">
<path d="M11 21C16.5228 21 21 16.5228 21 11C21 5.47715 16.5228 1 11 1C5.47715 1 1 5.47715 1 11C1 16.5228 5.47715 21 11 21Z" fill="#9AE600" stroke="black" stroke-width="2" stroke-linecap="round" stroke-linejoin="round"/>
<path d="M11 21V11V1C5.47715 1 1 5.47715 1 11C1 16.5228 5.47715 21 11 21Z" fill="#FFA2A2" stroke="black" stroke-width="2" stroke-linecap="round" stroke-linejoin="round"/>
<path d="M14.037 15.688C13.9976 15.5969 13.9864 15.4961 14.005 15.3986C14.0235 15.3011 14.071 15.2114 14.1412 15.1412C14.2114 15.071 14.3011 15.0235 14.3986 15.005C14.4961 14.9864 14.5969 14.9976 14.688 15.037L30.688 21.537C30.7853 21.5767 30.8676 21.6459 30.9233 21.735C30.979 21.8241 31.0052 21.9284 30.9983 22.0333C30.9913 22.1381 30.9515 22.238 30.8845 22.319C30.8175 22.3999 30.7267 22.4576 30.625 22.484L24.501 24.064C24.155 24.153 23.8391 24.333 23.5863 24.5853C23.3334 24.8377 23.1527 25.1532 23.063 25.499L21.484 31.625C21.4576 31.7267 21.3999 31.8175 21.319 31.8845C21.238 31.9515 21.1381 31.9913 21.0333 31.9983C20.9284 32.0052 20.8241 31.979 20.735 31.9233C20.6459 31.8676 20.5767 31.7853 20.537 31.688L14.037 15.688Z" fill="white" stroke="black" stroke-width="2" stroke-linecap="round" stroke-linejoin="round"/>
</svg>
