<svg width="108" height="33" viewBox="0 0 108 33" fill="none" xmlns="http://www.w3.org/2000/svg">
<path d="M11 21C16.5228 21 21 16.5228 21 11C21 5.47715 16.5228 1 11 1C5.47715 1 1 5.47715 1 11C1 16.5228 5.47715 21 11 21Z" fill="#9AE600" stroke="black" stroke-width="2" stroke-linecap="round" stroke-linejoin="round"/>
<path d="M11 21V11V1C5.47715 1 1 5.47715 1 11C1 16.5228 5.47715 21 11 21Z" fill="#FFA2A2" stroke="black" stroke-width="2" stroke-linecap="round" stroke-linejoin="round"/>
<path d="M14.0369 15.688C13.9974 15.5969 13.9863 15.4961 14.0048 15.3986C14.0234 15.3011 14.0709 15.2114 14.1411 15.1412C14.2113 15.071 14.3009 15.0235 14.3985 15.005C14.496 14.9864 14.5968 14.9976 14.6879 15.037L30.6879 21.537C30.7852 21.5767 30.8675 21.6459 30.9232 21.735C30.9789 21.8241 31.0051 21.9284 30.9981 22.0333C30.9912 22.1381 30.9514 22.238 30.8844 22.319C30.8174 22.3999 30.7266 22.4576 30.6249 22.484L24.5009 24.064C24.1549 24.153 23.839 24.333 23.5861 24.5853C23.3332 24.8377 23.1526 25.1532 23.0629 25.499L21.4839 31.625C21.4575 31.7267 21.3997 31.8175 21.3188 31.8845C21.2379 31.9515 21.138 31.9913 21.0331 31.9983C20.9283 32.0052 20.824 31.979 20.7349 31.9233C20.6458 31.8676 20.5765 31.7853 20.5369 31.688L14.0369 15.688Z" fill="white" stroke="black" stroke-width="2" stroke-linecap="round" stroke-linejoin="round"/>
<rect x="23" width="85" height="11" fill="white"/>
<rect x="87" y="1" width="20" height="9" fill="#C2E70A"/>
<rect x="66" y="1" width="20" height="9" fill="#EAE713"/>
<rect x="45" y="1" width="20" height="9" fill="#F5C55B"/>
<rect x="24" y="1" width="20" height="9" fill="#FFA2A2"/>
</svg>
